<?xml version="1.0" encoding="UTF-8" standalone="no"?>
<svg
   xmlns:dc="http://purl.org/dc/elements/1.1/"
   xmlns:cc="http://creativecommons.org/ns#"
   xmlns:rdf="http://www.w3.org/1999/02/22-rdf-syntax-ns#"
   xmlns:svg="http://www.w3.org/2000/svg"
   xmlns="http://www.w3.org/2000/svg"
   xmlns:sodipodi="http://sodipodi.sourceforge.net/DTD/sodipodi-0.dtd"
   xmlns:inkscape="http://www.inkscape.org/namespaces/inkscape"
   version="1.1"
   x="0px"
   y="0px"
   viewBox="0 0 48.694788 50.327"
   enable-background="new 0 0 50.4 50.4"
   xml:space="preserve"
   id="svg4739"
   inkscape:version="0.91 r13725"
   sodipodi:docname="game.svg"
   width="48.69479"
   height="50.327"><metadata
     id="metadata4767"><rdf:RDF><cc:Work
         rdf:about=""><dc:format>image/svg+xml</dc:format><dc:type
           rdf:resource="http://purl.org/dc/dcmitype/StillImage" /><dc:title></dc:title></cc:Work></rdf:RDF></metadata><defs
     id="defs4765" /><sodipodi:namedview
     pagecolor="#ffffff"
     bordercolor="#666666"
     borderopacity="1"
     objecttolerance="10"
     gridtolerance="10"
     guidetolerance="10"
     inkscape:pageopacity="0"
     inkscape:pageshadow="2"
     inkscape:window-width="1875"
     inkscape:window-height="1056"
     id="namedview4763"
     showgrid="false"
     fit-margin-top="0"
     fit-margin-left="0"
     fit-margin-right="0"
     fit-margin-bottom="0"
     inkscape:zoom="3.7460317"
     inkscape:cx="23.854791"
     inkscape:cy="18.907"
     inkscape:window-x="45"
     inkscape:window-y="24"
     inkscape:window-maximized="1"
     inkscape:current-layer="svg4739" /><g
     id="g4741"
     style="fill:#dddddd;fill-opacity:1"
     transform="translate(-1.3452099,-0.07999992)"><circle
       cx="45.848999"
       cy="4.2709999"
       r="4.191"
       id="circle4743"
       style="fill:#dddddd;fill-opacity:1" /><path
       d="m 48.479,33.049 -6.194,-11.57 c -0.104,-0.188 -0.26,-0.332 -0.442,-0.425 l 2.707,-3.167 c 0,0 3.228,-3.979 1.783,-6.562 C 45.127,9.176 42.713,8.485 41.914,8.59 L 41.897,8.624 C 41.706,8.612 41.504,8.618 41.295,8.668 l -10.754,2.489 c -0.682,0.162 -1.247,0.64 -1.519,1.286 -0.271,0.648 -0.219,1.383 0.144,1.983 l 2.997,4.929 -0.68,1.581 -2.093,0 c -0.314,0 -0.607,0.138 -0.805,0.382 -0.115,0.139 -2.756,3.469 -0.794,7.066 0.95,1.743 4.045,4.21 6.003,5.665 -2.238,0.868 -5.876,2.508 -7.672,4.599 -2.625,3.063 -3.499,7.316 -3.534,7.497 -0.11,0.546 0.235,1.083 0.777,1.21 l 12.949,3.027 c 0.08,0.021 0.158,0.025 0.236,0.025 0.331,0 0.651,-0.161 0.849,-0.44 L 48.416,34.128 c 0.225,-0.319 0.247,-0.737 0.063,-1.079 z m -9.462,-19.388 -2.794,2.21 3.058,5.063 -1.341,0 -3.761,-6.204 4.838,-1.069 z m 5.269,22.79 -10.945,5.388 c -0.513,0.248 -0.724,0.87 -0.47,1.385 0.178,0.365 0.545,0.573 0.928,0.573 0.15,0 0.311,-0.035 0.453,-0.106 L 41.85,39.952 36.102,48.21 24.865,45.578 c 0.383,-1.322 1.246,-3.739 2.829,-5.585 2.255,-2.633 8.552,-4.622 8.615,-4.645 0.38,-0.118 0.653,-0.439 0.715,-0.829 0.057,-0.392 -0.114,-0.784 -0.436,-1.007 -1.626,-1.119 -6.04,-4.393 -6.981,-6.119 -1,-1.828 -0.149,-3.626 0.323,-4.392 l 4.452,0 1.631,2.684 c 0.414,0.679 1.137,1.054 1.875,1.054 0.388,0 0.778,-0.106 1.134,-0.317 1.035,-0.629 1.363,-1.976 0.736,-3.009 L 39.506,23 l 1.249,0 5.605,10.465 -2.074,2.986 z"
       id="path4745"
       style="fill:#dddddd;fill-opacity:1"
       inkscape:connector-curvature="0" /><path
       d="m 22.828,4.018 c 0,1.792 -1.456,3.25 -3.249,3.25 -1.796,0 -3.251,-1.458 -3.251,-3.25 0,-1.796 1.456,-3.251 3.251,-3.251 1.793,0 3.249,1.455 3.249,3.251 z"
       id="path4747"
       style="fill:#dddddd;fill-opacity:1"
       inkscape:connector-curvature="0" /><g
       id="g4749"
       style="fill:#dddddd;fill-opacity:1"><path
         d="m 21.803,26.248 -4.37,-8.893 c -0.138,-0.282 -0.406,-0.466 -0.711,-0.511 l 1.916,-2.243 c 0,0 2.504,-3.084 1.381,-5.087 C 19.086,7.847 17.217,7.312 16.596,7.394 L 16.583,7.417 C 16.432,7.41 16.276,7.414 16.116,7.453 L 7.776,9.385 C 7.248,9.508 6.812,9.878 6.6,10.38 6.39,10.879 6.433,11.453 6.715,11.916 l 2.321,3.824 -0.466,1.08 -1.594,0 c -0.29,0 -0.561,0.132 -0.742,0.356 -0.078,0.097 -1.888,2.39 -0.528,5.113 0.692,1.388 2.58,3.375 3.755,4.544 -0.968,0.577 -2.346,1.538 -3.524,2.913 -0.449,0.523 -0.639,1.181 -0.547,1.899 0.342,2.661 4.682,5.789 5.548,6.395 0.162,0.11 0.353,0.169 0.542,0.169 0.133,0 0.267,-0.032 0.393,-0.087 l 7.163,-3.235 c 0.249,-0.116 0.436,-0.325 0.517,-0.587 l 2.304,-7.348 c 0.072,-0.232 0.053,-0.486 -0.054,-0.704 z m -7.453,-14.922 -2.081,1.568 2.373,3.927 -1.342,0 -2.831,-4.665 3.881,-0.83 z m 3.513,21.998 -6.274,2.836 C 9.764,34.816 7.44,32.647 7.279,31.4 7.251,31.175 7.322,31.077 7.383,30.99 c 1.921,-2.794 7.907,-4.701 7.907,-4.701 0.485,-0.201 0.717,-0.761 0.513,-1.246 -0.2,-0.484 -0.759,-0.716 -1.246,-0.514 l -3.319,1.378 C 10.069,24.772 8.013,22.645 7.408,21.436 6.836,20.291 7.213,19.25 7.492,18.728 l 3.354,0 0.616,1.037 c 0.32,0.529 0.879,0.817 1.452,0.817 0.298,0 0.73,-0.074 1.003,-0.25 0.646,-0.417 0.646,-0.979 0.561,-1.604 l 1.507,0 3.938,8.016 -2.06,6.58 z"
         id="path4751"
         style="fill:#dddddd;fill-opacity:1"
         inkscape:connector-curvature="0" /><path
         d="m 13.595,30.272 c -1.685,-0.562 -2.985,-0.425 -3.042,-0.42 -0.499,0.056 -0.857,0.506 -0.803,1.007 0.053,0.494 0.501,0.845 1.004,0.8 0.008,-0.004 0.973,-0.094 2.265,0.337 1.117,0.375 1.358,0.666 1.358,0.666 l 1.642,-0.779 c -0.136,-0.286 -0.644,-1.017 -2.424,-1.611 z"
         id="path4753"
         style="fill:#dddddd;fill-opacity:1"
         inkscape:connector-curvature="0" /><path
         d="M 3.461,23.057 C 3.022,21.826 3.198,20.064 3.2,20.047 c 0.051,-0.499 -0.311,-0.948 -0.81,-1 -0.507,-0.053 -0.945,0.31 -1,0.811 -0.009,0.087 -0.22,2.186 0.359,3.809 0.696,1.95 1.668,3.12 1.709,3.17 0.179,0.214 0.438,0.326 0.696,0.326 0.208,0 0.414,-0.068 0.583,-0.213 C 5.122,26.628 5.174,26.053 4.851,25.671 4.843,25.66 4.039,24.674 3.461,23.057 Z"
         id="path4755"
         style="fill:#dddddd;fill-opacity:1"
         inkscape:connector-curvature="0" /></g><path
       d="m 18.684,43.581 c -0.115,0 -0.233,-0.024 -0.35,-0.072 -0.489,-0.19 -0.729,-0.744 -0.535,-1.233 0.481,-1.22 1.16,-2.79 2.118,-4.091 1.84,-2.486 3.389,-3.495 3.455,-3.54 0.441,-0.282 1.03,-0.154 1.316,0.287 0.284,0.442 0.157,1.027 -0.284,1.314 -0.026,0.018 -1.354,0.906 -2.956,3.073 -0.932,1.264 -1.618,3 -1.877,3.657 -0.15,0.373 -0.508,0.605 -0.887,0.605 l 0,0 z"
       id="path4757"
       style="fill:#dddddd;fill-opacity:1"
       inkscape:connector-curvature="0" /></g></svg>