<?xml version="1.0" encoding="UTF-8" standalone="no"?>
<svg
   xmlns:dc="http://purl.org/dc/elements/1.1/"
   xmlns:cc="http://creativecommons.org/ns#"
   xmlns:rdf="http://www.w3.org/1999/02/22-rdf-syntax-ns#"
   xmlns:svg="http://www.w3.org/2000/svg"
   xmlns="http://www.w3.org/2000/svg"
   xmlns:sodipodi="http://sodipodi.sourceforge.net/DTD/sodipodi-0.dtd"
   xmlns:inkscape="http://www.inkscape.org/namespaces/inkscape"
   version="1.1"
   x="0px"
   y="0px"
   viewBox="0 0 80.506973 70.957863"
   enable-background="new 0 0 72 72"
   xml:space="preserve"
   id="svg4418"
   inkscape:version="0.91 r13725"
   sodipodi:docname="target.svg"
   width="80.506973"
   height="70.957863"><metadata
     id="metadata4436"><rdf:RDF><cc:Work
         rdf:about=""><dc:format>image/svg+xml</dc:format><dc:type
           rdf:resource="http://purl.org/dc/dcmitype/StillImage" /><dc:title></dc:title></cc:Work></rdf:RDF></metadata><defs
     id="defs4434" /><sodipodi:namedview
     pagecolor="#ffffff"
     bordercolor="#666666"
     borderopacity="1"
     objecttolerance="10"
     gridtolerance="10"
     guidetolerance="10"
     inkscape:pageopacity="0"
     inkscape:pageshadow="2"
     inkscape:window-width="1875"
     inkscape:window-height="1056"
     id="namedview4432"
     showgrid="false"
     fit-margin-top="0"
     fit-margin-left="0"
     fit-margin-right="0"
     fit-margin-bottom="0"
     inkscape:zoom="10.233333"
     inkscape:cx="27.051682"
     inkscape:cy="42.788497"
     inkscape:window-x="45"
     inkscape:window-y="24"
     inkscape:window-maximized="1"
     inkscape:current-layer="svg4418" /><g
     id="g4420"
     transform="translate(6.4914224,-0.54213833)"
     style="fill:#dddddd;fill-opacity:1"><path
       d="m 71,42.5 c 0.4,-0.3 0.3,-1 -0.2,-1.3 L 57.6,35.6 c -0.3,-0.1 -0.7,-0.1 -0.9,0.1 l -3.9,3.1 c -0.3,0.2 -0.6,0.3 -0.9,0.1 l -11.6,-5 c -0.4,-0.2 -0.6,-0.5 -0.6,-0.9 0,0 0,-0.1 0,-0.1 0,-3.7 -3.1,-6.7 -6.8,-6.5 -3.4,0.1 -6.1,2.9 -6.3,6.3 -0.1,3.7 2.8,6.8 6.5,6.8 1.7,0 3.2,-0.7 4.4,-1.7 0.3,-0.2 0.7,-0.3 1,-0.2 l 11.8,5.1 c 0.3,0.1 0.5,0.4 0.6,0.8 l 0.5,5 c 0,0.3 0.2,0.6 0.6,0.8 l 12.9,5.5 c 0.6,0.3 1.4,-0.2 1.3,-0.9 l -0.6,-6.3 c 0,-0.3 0.1,-0.6 0.3,-0.8 L 71,42.5 Z"
       id="path4422"
       inkscape:connector-curvature="0"
       style="fill:#dddddd;fill-opacity:1" /><path
       d="m 51.2,34.4 c 0.3,0.1 0.7,0.1 1,-0.1 l 2,-1.6 c 0,0 0,0 0,0 C 54.1,21 44.6,11.7 32.9,11.8 21.5,11.9 12.1,21.3 12,32.8 11.9,44.5 21.5,54 33.2,54 38.5,54 43.3,52 47,48.8 47.2,48.6 47.4,48.3 47.3,48 l -0.2,-1.9 c 0,-0.3 -0.3,-0.6 -0.6,-0.8 l -0.2,-0.1 c -0.4,-0.2 -0.8,-0.1 -1,0.2 -3.2,3.1 -7.7,5 -12.5,4.9 -9.2,-0.2 -16.7,-7.6 -17,-16.8 -0.4,-9.9 7.6,-18.2 17.5,-18.2 9.6,0 17.5,7.8 17.5,17.5 0,0.2 0,0.3 0,0.5 -0.2,0.5 0,0.9 0.4,1.1 l 0,0 z"
       id="path4424"
       inkscape:connector-curvature="0"
       style="fill:#dddddd;fill-opacity:1" /><path
       d="m 52.4,59.1 c 1.2,-0.9 2.3,-1.9 3.4,-2.9 0.3,-0.3 0.2,-0.9 -0.2,-1.1 L 53.4,54.2 C 53.2,54.1 52.9,54.1 52.7,54.3 47.5,59 40.6,61.9 33,61.9 17,61.7 4.1,48.4 4.3,32.5 4.6,16.8 17.4,4.1 33.2,4.1 c 15.4,0 28,12.1 28.8,27.4 0,0.3 0,0.9 0,1.3 0,0.2 0.1,0.4 0.3,0.5 l 2.1,0.9 c 0.6,0.2 1.2,-0.2 1.2,-0.8 0,-0.1 0,-0.3 0,-0.4 C 65.6,12.6 46.7,-3.4 25.5,1.4 13.8,4.1 4.5,13.2 1.7,24.9 c -3.3,13.7 2.2,26.5 12,33.9 0.5,0.4 0.6,1.1 0.1,1.6 l -7.7,7.7 c -0.8,0.8 -0.8,2 0,2.8 0.4,0.4 0.9,0.6 1.4,0.6 0.5,0 1,-0.2 1.4,-0.6 l 8.7,-8.7 c 0.3,-0.3 0.8,-0.4 1.2,-0.2 4.3,2.2 9.2,3.4 14.4,3.4 5.3,0 10.2,-1.3 14.6,-3.5 0.3,-0.1 0.6,-0.1 0.8,0.1 l 8.9,8.9 c 0.4,0.4 0.9,0.6 1.4,0.6 0.6,0 1.2,-0.3 1.6,-0.8 0.6,-0.8 0.5,-2 -0.2,-2.6 l -8,-8 c -0.3,-0.3 -0.2,-0.8 0.1,-1 z"
       id="path4426"
       inkscape:connector-curvature="0"
       style="fill:#dddddd;fill-opacity:1" /></g></svg>